<?xml version="1.0" standalone="no"?>
<!DOCTYPE svg PUBLIC "-//W3C//DTD SVG 20010904//EN"
 "http://www.w3.org/TR/2001/REC-SVG-20010904/DTD/svg10.dtd">
<svg version="1.0" xmlns="http://www.w3.org/2000/svg"
 width="260.000000pt" height="260.000000pt" viewBox="0 0 260.000000 260.000000"
 preserveAspectRatio="xMidYMid meet">
<metadata>
Created by potrace 1.11, written by Peter Selinger 2001-2013
</metadata>
<g transform="translate(0.000000,260.000000) scale(0.100000,-0.100000)"
fill="#000000" stroke="none">
<path d="M1484 2245 c-14 -10 -12 -14 17 -32 l33 -21 -35 -15 c-19 -8 -52 -20
-74 -27 -22 -7 -113 -52 -203 -101 -89 -49 -167 -89 -172 -89 -6 0 -10 -4 -10
-10 0 -5 -5 -10 -10 -10 -13 0 -151 -78 -230 -129 -30 -19 -57 -34 -59 -32 -2
1 -7 -1 -10 -6 -3 -5 -35 -29 -71 -53 -36 -24 -83 -56 -105 -71 -33 -22 -142
-104 -216 -161 -40 -31 -117 -97 -165 -141 -28 -26 -63 -56 -78 -68 -30 -24
-34 -49 -8 -49 15 0 22 -13 31 -57 16 -77 88 -308 111 -358 22 -50 81 -211 81
-225 1 -3 5 -11 11 -17 6 -7 8 -13 4 -13 -4 0 2 -17 13 -38 10 -20 21 -48 22
-62 2 -14 8 -28 12 -31 5 -3 9 -12 11 -20 6 -33 39 -96 64 -122 29 -30 65 -30
87 0 8 11 21 14 40 11 15 -3 41 -2 58 3 32 9 65 14 167 25 36 3 72 8 80 9 8 1
46 6 83 10 37 3 78 8 90 11 44 9 141 22 207 29 14 2 52 6 85 10 187 21 362 35
491 40 45 1 87 5 92 9 6 3 13 3 16 -2 2 -4 24 -6 48 -4 24 2 49 3 56 3 6 -1
18 -1 25 -1 68 -3 149 22 176 54 13 16 29 70 35 117 2 15 6 31 10 37 3 5 8 25
10 43 3 19 12 68 21 109 9 41 18 84 21 95 2 11 6 31 9 45 3 14 8 36 10 50 2
14 10 66 19 115 9 50 18 106 20 125 7 54 37 194 44 205 8 12 11 28 16 83 2 24
9 49 15 55 18 18 12 82 -11 128 -22 43 -162 189 -228 239 -161 122 -347 230
-397 230 -10 0 -23 4 -28 9 -12 10 -197 59 -267 70 -32 6 -53 4 -64 -4z"/>
</g>
</svg>
